<svg preserveAspectRatio="none" width="100%" height="100%" overflow="visible" style="display: block;" viewBox="0 0 115 54" fill="none" xmlns="http://www.w3.org/2000/svg">
<g id="Layer_1" clip-path="url(#clip0_0_8)">
<path id="Vector" d="M0 0H11.8449C16.4593 0 19.8846 0.691398 22.1223 2.07419C24.3599 3.45699 25.4788 5.60968 25.4788 8.53228C25.4788 10.454 24.9912 12.0949 24.0159 13.4551C23.0407 14.8152 21.7558 15.6893 20.1599 16.0803V16.3143C22.2659 16.8774 23.7901 17.8148 24.7354 19.1267C25.6792 20.44 26.1519 22.1429 26.1519 24.2367C26.1519 27.3465 24.9941 29.7965 22.6802 31.5854C20.3648 33.3743 17.2102 34.2695 13.2165 34.2695H0V0ZM9.1735 13.1502H11.9377C13.2539 13.1502 14.271 12.8769 14.992 12.3304C15.7115 11.784 16.0719 10.9703 16.0719 9.89243C16.0719 7.9707 14.6315 7.00909 11.7522 7.00909H9.1735V13.1502ZM9.1735 19.9237V27.12H12.4013C15.2657 27.12 16.6987 25.9018 16.6987 23.4638C16.6987 22.3225 16.3157 21.4484 15.5484 20.8386C14.7811 20.2287 13.6712 19.9237 12.2159 19.9237H9.1735Z" fill="var(--fill-0, #3D4A3D)"/>
<path id="Vector_2" d="M61.3501 0V20.6272C61.3501 25.1122 60.0921 28.5858 57.5763 31.0465C55.0604 33.5071 51.4332 34.739 46.6946 34.739C41.9561 34.739 38.5083 33.5434 36.0224 31.1522C33.5364 28.761 32.2949 25.3236 32.2949 20.8386V0H41.5148V20.1109C41.5148 22.5338 41.9635 24.291 42.8625 25.3855C43.7599 26.4799 45.0837 27.0264 46.8337 27.0264C48.7064 27.0264 50.0661 26.483 50.9097 25.3976C51.7533 24.3122 52.1751 22.5338 52.1751 20.0656V0H61.3486H61.3501Z" fill="var(--fill-0, #3D4A3D)"/>
<path id="Vector_3" d="M98.0112 34.2695H88.7913V20.2996H78.131V34.2695H68.9111V0H78.131V12.7048H88.7913V0H98.0112V34.2695Z" fill="var(--fill-0, #3D4A3D)"/>
<path id="Vector_4" d="M105.78 34.2695V0H115V34.2695H105.78Z" fill="var(--fill-0, #3D4A3D)"/>
<path id="Vector_5" d="M9.09871 49.7943C9.09871 50.6079 8.89379 51.3295 8.48545 51.9605C8.0771 52.5915 7.48777 53.0822 6.71746 53.4309C5.94714 53.7811 5.0437 53.9547 4.00714 53.9547C3.14259 53.9547 2.41715 53.8928 1.83081 53.7705C1.24447 53.6483 0.634202 53.4339 0 53.129V49.9724C0.668605 50.3196 1.36563 50.5898 2.08808 50.7845C2.81053 50.9793 3.47465 51.0759 4.07894 51.0759C4.59946 51.0759 4.98238 50.9853 5.22469 50.8027C5.467 50.62 5.58965 50.386 5.58965 50.0992C5.58965 49.9195 5.54029 49.7625 5.44307 49.6282C5.34585 49.4938 5.18879 49.358 4.97191 49.2206C4.75502 49.0832 4.17915 48.8024 3.2443 48.3782C2.3977 47.9903 1.762 47.6129 1.3387 47.2491C0.915405 46.8837 0.601295 46.4656 0.396376 45.9931C0.191457 45.5206 0.0897456 44.962 0.0897456 44.3159C0.0897456 43.1082 0.525012 42.1662 1.39554 41.4914C2.26608 40.8166 3.46268 40.4785 4.98537 40.4785C6.33006 40.4785 7.70167 40.7925 9.09871 41.4205L8.02326 44.1559C6.8087 43.5943 5.76017 43.3135 4.87767 43.3135C4.42147 43.3135 4.08941 43.3935 3.88299 43.5551C3.67508 43.7166 3.57187 43.9174 3.57187 44.1559C3.57187 44.4125 3.7035 44.6435 3.96676 44.8458C4.23001 45.0496 4.94498 45.4194 6.11317 45.9583C7.232 46.4671 8.00979 47.0121 8.44506 47.5948C8.88033 48.1775 9.09871 48.9111 9.09871 49.7958V49.7943Z" fill="var(--fill-0, #3D4A3D)"/>
<path id="Vector_6" d="M23.2426 40.6657V48.5564C23.2426 50.2728 22.761 51.6012 21.7992 52.5417C20.8359 53.4837 19.4494 53.9547 17.6365 53.9547C15.8236 53.9547 14.5044 53.4973 13.5546 52.5825C12.6033 51.6677 12.1291 50.3528 12.1291 48.6364V40.6642H15.6561V48.3586C15.6561 49.2855 15.8281 49.9573 16.1722 50.377C16.5162 50.7951 17.0217 51.0049 17.6918 51.0049C18.4083 51.0049 18.9288 50.7966 19.2504 50.3815C19.5735 49.9663 19.7351 49.2855 19.7351 48.342V40.6657H23.2441H23.2426Z" fill="var(--fill-0, #3D4A3D)"/>
<path id="Vector_7" d="M36.4891 44.8352C36.4891 46.2995 36.0613 47.4317 35.2057 48.2288C34.3501 49.0274 33.1341 49.4259 31.559 49.4259H30.5733V53.7751H27.0643V40.6657H31.5605C33.2014 40.6657 34.4339 41.028 35.2566 41.7511C36.0792 42.4742 36.4921 43.5022 36.4921 44.8352H36.4891ZM30.5703 46.5395H31.2105C31.737 46.5395 32.1573 46.3901 32.4685 46.0912C32.7796 45.7923 32.9351 45.3802 32.9351 44.8533C32.9351 43.9687 32.449 43.5264 31.4783 43.5264H30.5718V46.5395H30.5703Z" fill="var(--fill-0, #3D4A3D)"/>
<path id="Vector_8" d="M49.0774 44.8352C49.0774 46.2995 48.6496 47.4317 47.794 48.2288C46.9384 49.0274 45.7224 49.4259 44.1473 49.4259H43.1616V53.7751H39.6526V40.6657H44.1488C45.7897 40.6657 47.0222 41.028 47.8449 41.7511C48.6675 42.4742 49.0804 43.5022 49.0804 44.8352H49.0774ZM43.1601 46.5395H43.8003C44.3268 46.5395 44.7471 46.3901 45.0583 46.0912C45.3694 45.7923 45.5249 45.3802 45.5249 44.8533C45.5249 43.9687 45.0388 43.5264 44.0681 43.5264H43.1616V46.5395H43.1601Z" fill="var(--fill-0, #3D4A3D)"/>
<path id="Vector_9" d="M52.2394 53.7751V40.6657H55.7485V50.9159H60.7503V53.7766H52.2379L52.2394 53.7751Z" fill="var(--fill-0, #3D4A3D)"/>
<path id="Vector_10" d="M68.5596 45.5266L70.7988 40.6657H74.601L70.3276 48.656V53.7766H66.7917V48.7647L62.5183 40.6672H66.3384L68.5596 45.5281V45.5266Z" fill="var(--fill-0, #3D4A3D)"/>
<path id="Vector_11" d="M89.2191 43.383C88.3844 43.383 87.7323 43.7287 87.2641 44.4186C86.7959 45.1084 86.5626 46.061 86.5626 47.2747C86.5626 49.7973 87.5139 51.0593 89.415 51.0593C89.9894 51.0593 90.5458 50.9793 91.0858 50.8178C91.6243 50.6562 92.1672 50.4615 92.7117 50.2351V53.2301C91.6273 53.7147 90.4022 53.9562 89.0336 53.9562C87.0727 53.9562 85.5694 53.3826 84.5239 52.2353C83.4784 51.088 82.9563 49.4289 82.9563 47.2581C82.9563 45.901 83.2091 44.7084 83.7162 43.6804C84.2232 42.6523 84.9517 41.8613 85.9015 41.3088C86.8528 40.7563 87.9701 40.48 89.255 40.48C90.6595 40.48 91.9997 40.788 93.2801 41.4039L92.2046 44.1921C91.7245 43.9657 91.2443 43.774 90.7657 43.6185C90.2856 43.463 89.771 43.386 89.2191 43.386V43.383Z" fill="var(--fill-0, #3D4A3D)"/>
<path id="Vector_12" d="M108.489 47.2023C108.489 49.4078 107.953 51.085 106.881 52.2323C105.809 53.3796 104.24 53.9532 102.172 53.9532C100.105 53.9532 98.5721 53.3765 97.4861 52.2232C96.3987 51.0699 95.8558 49.3897 95.8558 47.1841C95.8558 44.9786 96.3957 43.3362 97.4772 42.1843C98.5586 41.034 100.129 40.4589 102.19 40.4589C104.251 40.4589 105.825 41.0295 106.89 42.1723C107.956 43.3135 108.489 44.9907 108.489 47.2023ZM99.5503 47.2023C99.5503 49.7369 100.424 51.0049 102.171 51.0049C103.059 51.0049 103.717 50.697 104.148 50.0811C104.578 49.4652 104.793 48.5066 104.793 47.2023C104.793 45.898 104.575 44.9258 104.139 44.3008C103.704 43.6758 103.053 43.3633 102.189 43.3633C100.43 43.3633 99.5503 44.6435 99.5503 47.2008V47.2023Z" fill="var(--fill-0, #3D4A3D)"/>
<path id="Vector_13" d="M111.288 52.2866C111.288 51.7371 111.449 51.3129 111.772 51.014C112.095 50.7151 112.565 50.5657 113.181 50.5657C113.797 50.5657 114.218 50.7151 114.532 51.014C114.846 51.3129 115.003 51.7371 115.003 52.2866C115.003 52.8361 114.841 53.2452 114.518 53.5471C114.195 53.849 113.75 54 113.181 54C112.613 54 112.133 53.8506 111.795 53.5516C111.457 53.2527 111.288 52.8316 111.288 52.2866Z" fill="var(--fill-0, #3D4A3D)"/>
</g>
<defs>
<clipPath id="clip0_0_8">
<rect width="115" height="54" fill="white"/>
</clipPath>
</defs>
</svg>
